<svg width="6000" height="3000" viewBox="0 0 6000 3000" fill="none" xmlns="http://www.w3.org/2000/svg">
<g clip-path="url(#clip0_1821_94)">
<g filter="url(#filter0_if_1821_94)">
<circle cx="4272" cy="1530" r="1310" transform="rotate(-90 4272 1530)" fill="url(#paint0_linear_1821_94)" fill-opacity="0.25"/>
</g>
<path d="M686.214 1560.52C686.214 1515.73 692.338 1476.01 704.586 1441.37C716.834 1406.38 734.155 1376.98 756.551 1353.19C779.297 1329.04 806.417 1310.84 837.911 1298.6C869.755 1286 905.099 1279.7 943.941 1279.7C960.738 1279.7 977.185 1280.75 993.282 1282.85C1009.73 1284.95 1025.83 1288.27 1041.57 1292.82V1071.31H1133.43V1813H1051.55L1048.4 1713.27C1022.85 1750.36 995.207 1777.83 965.462 1795.68C935.718 1813.52 903.524 1822.45 868.88 1822.45C838.786 1822.45 812.191 1816.15 789.095 1803.55C766.349 1790.95 747.278 1773.28 731.881 1750.54C716.834 1727.44 705.461 1699.8 697.762 1667.6C690.064 1635.41 686.214 1599.71 686.214 1560.52ZM779.647 1554.75C779.647 1618.44 788.92 1666.03 807.467 1697.52C826.363 1728.67 852.958 1744.24 887.252 1744.24C910.348 1744.24 934.668 1733.91 960.213 1713.27C986.109 1692.62 1013.23 1662 1041.57 1621.41V1376.81C1026.53 1369.81 1009.9 1364.56 991.708 1361.06C973.511 1357.21 955.489 1355.29 937.643 1355.29C887.952 1355.29 849.109 1371.38 821.114 1403.58C793.469 1435.77 779.647 1486.16 779.647 1554.75ZM1642.59 1813L1640.49 1742.14C1611.79 1770.48 1582.57 1790.95 1552.83 1803.55C1523.43 1816.15 1492.46 1822.45 1459.92 1822.45C1429.83 1822.45 1404.11 1818.6 1382.76 1810.9C1361.41 1803.2 1343.74 1792.7 1329.74 1779.41C1316.1 1765.76 1305.95 1749.84 1299.3 1731.64C1293 1713.44 1289.85 1693.67 1289.85 1672.33C1289.85 1619.49 1309.45 1578.19 1348.64 1548.45C1388.18 1518.35 1446.45 1503.31 1523.43 1503.31H1632.61V1457.12C1632.61 1425.97 1622.64 1401.13 1602.69 1382.58C1582.75 1363.68 1552.3 1354.24 1511.36 1354.24C1481.62 1354.24 1452.22 1357.56 1423.18 1364.21C1394.48 1370.86 1364.74 1380.31 1333.94 1392.55V1310.14C1345.49 1305.94 1358.26 1301.92 1372.26 1298.07C1386.61 1293.87 1401.66 1290.2 1417.4 1287.05C1433.15 1283.9 1449.6 1281.45 1466.74 1279.7C1483.89 1277.6 1501.21 1276.55 1518.71 1276.55C1550.55 1276.55 1579.25 1280.05 1604.79 1287.05C1630.34 1294.05 1651.86 1304.72 1669.36 1319.07C1687.2 1333.41 1700.85 1351.44 1710.3 1373.13C1719.75 1394.83 1724.47 1420.37 1724.47 1449.77V1813H1642.59ZM1632.61 1573.12H1516.61C1493.86 1573.12 1474.27 1575.39 1457.82 1579.94C1441.37 1584.49 1427.9 1590.97 1417.4 1599.36C1406.91 1607.76 1399.03 1617.91 1393.78 1629.81C1388.88 1641.36 1386.43 1654.48 1386.43 1669.18C1386.43 1679.32 1388.01 1689.12 1391.16 1698.57C1394.31 1707.67 1399.38 1715.89 1406.38 1723.24C1413.38 1730.24 1422.48 1735.84 1433.68 1740.04C1444.87 1744.24 1458.52 1746.34 1474.62 1746.34C1495.61 1746.34 1519.58 1740.04 1546.53 1727.44C1573.82 1714.49 1602.52 1694.2 1632.61 1666.55V1573.12ZM1916.59 1286H2000.04L2002.67 1383.1C2033.81 1345.66 2064.43 1318.54 2094.53 1301.75C2124.97 1284.95 2155.59 1276.55 2186.39 1276.55C2240.98 1276.55 2282.27 1294.22 2310.26 1329.56C2338.61 1364.91 2351.73 1417.4 2349.63 1487.04H2257.25C2258.3 1440.84 2251.47 1407.43 2236.78 1386.78C2222.43 1365.78 2201.26 1355.29 2173.26 1355.29C2161.01 1355.29 2148.59 1357.56 2135.99 1362.11C2123.75 1366.31 2110.97 1373.31 2097.68 1383.1C2084.73 1392.55 2070.91 1404.8 2056.21 1419.85C2041.51 1434.9 2025.77 1453.09 2008.97 1474.44V1813H1916.59V1286ZM2960.09 1813H2834.64L2588.99 1530.6V1813H2497.65V1071.31H2588.99V1526.93L2825.72 1286H2946.44L2699.21 1529.03L2960.09 1813ZM3256.66 1146.37H3100.77V1071.31H3349.04V1736.89H3505.99V1813H3083.44V1736.89H3256.66V1146.37ZM4113.3 1521.68C4113.3 1534.63 4113.13 1545.47 4112.78 1554.22C4112.43 1562.97 4111.9 1571.19 4111.2 1578.89H3741.15C3741.15 1632.78 3756.19 1674.25 3786.29 1703.3C3816.38 1731.99 3859.77 1746.34 3916.46 1746.34C3931.86 1746.34 3947.26 1745.81 3962.65 1744.76C3978.05 1743.36 3992.92 1741.61 4007.27 1739.51C4021.62 1737.41 4035.27 1735.14 4048.21 1732.69C4061.51 1729.89 4073.76 1726.92 4084.96 1723.77V1798.83C4060.11 1805.83 4031.94 1811.43 4000.45 1815.62C3969.3 1820.17 3936.93 1822.45 3903.34 1822.45C3858.2 1822.45 3819.36 1816.32 3786.81 1804.08C3754.27 1791.83 3727.5 1774.16 3706.5 1751.06C3685.86 1727.62 3670.46 1699.1 3660.31 1665.5C3650.51 1631.56 3645.61 1593.24 3645.61 1550.55C3645.61 1513.46 3650.86 1478.46 3661.36 1445.57C3672.21 1412.32 3687.78 1383.28 3708.08 1358.43C3728.72 1333.24 3753.92 1313.29 3783.66 1298.6C3813.41 1283.9 3847.18 1276.55 3884.97 1276.55C3921.71 1276.55 3954.26 1282.32 3982.6 1293.87C4010.95 1305.42 4034.74 1321.87 4053.99 1343.21C4073.58 1364.21 4088.28 1389.93 4098.08 1420.37C4108.23 1450.47 4113.3 1484.24 4113.3 1521.68ZM4018.29 1508.56C4019.34 1485.11 4017.07 1463.76 4011.47 1444.52C4005.87 1424.92 3997.12 1408.13 3985.23 1394.13C3973.68 1380.13 3959.16 1369.28 3941.66 1361.58C3924.16 1353.54 3903.87 1349.51 3880.77 1349.51C3860.82 1349.51 3842.63 1353.36 3826.18 1361.06C3809.73 1368.76 3795.56 1379.61 3783.66 1393.6C3771.77 1407.6 3762.14 1424.4 3754.79 1443.99C3747.44 1463.59 3742.9 1485.11 3741.15 1508.56H4018.29ZM4259.22 1286H4340.58L4344.26 1371.03C4359.66 1352.84 4374.53 1337.79 4388.88 1325.89C4403.22 1313.64 4417.22 1303.84 4430.87 1296.5C4444.87 1289.15 4459.04 1284.07 4473.38 1281.27C4487.73 1278.12 4502.6 1276.55 4518 1276.55C4572.24 1276.55 4613.18 1292.65 4640.83 1324.84C4668.82 1356.68 4682.82 1404.8 4682.82 1469.19V1813H4591.49V1476.54C4591.49 1435.25 4583.79 1404.8 4568.39 1385.2C4552.99 1365.26 4530.07 1355.29 4499.63 1355.29C4488.43 1355.29 4477.41 1357.03 4466.56 1360.53C4456.06 1363.68 4445.04 1369.46 4433.49 1377.86C4421.94 1385.9 4409.35 1396.93 4395.7 1410.92C4382.4 1424.92 4367.35 1442.42 4350.56 1463.42V1813H4259.22V1286ZM5267.56 1669.18C5267.56 1687.72 5264.41 1704.35 5258.11 1719.04C5251.81 1733.74 5243.24 1746.86 5232.39 1758.41C5221.55 1769.61 5208.95 1779.23 5194.6 1787.28C5180.25 1795.33 5164.86 1801.98 5148.41 1807.23C5132.31 1812.48 5115.69 1816.32 5098.54 1818.77C5081.4 1821.22 5064.6 1822.45 5048.15 1822.45C5012.46 1822.45 4979.57 1820.87 4949.47 1817.72C4919.73 1814.57 4890.51 1809.5 4861.81 1802.5V1718.52C4892.61 1727.27 4923.23 1733.91 4953.67 1738.46C4984.11 1743.01 5014.38 1745.29 5044.48 1745.29C5088.22 1745.29 5120.59 1739.34 5141.59 1727.44C5162.58 1715.54 5173.08 1698.57 5173.08 1676.53C5173.08 1667.08 5171.33 1658.68 5167.83 1651.33C5164.68 1643.63 5158.73 1636.46 5149.98 1629.81C5141.24 1622.81 5127.59 1615.64 5109.04 1608.29C5090.84 1600.94 5065.82 1592.54 5033.98 1583.09C5010.18 1576.09 4988.14 1568.22 4967.84 1559.47C4947.9 1550.37 4930.57 1539.7 4915.88 1527.45C4901.18 1515.21 4889.63 1500.86 4881.23 1484.41C4872.84 1467.96 4868.64 1448.54 4868.64 1426.15C4868.64 1411.45 4871.96 1395.35 4878.61 1377.86C4885.61 1360.36 4897.33 1344.09 4913.78 1329.04C4930.22 1313.99 4952.45 1301.57 4980.44 1291.77C5008.44 1281.62 5043.43 1276.55 5085.42 1276.55C5106.07 1276.55 5128.99 1277.77 5154.18 1280.22C5179.38 1282.32 5205.62 1286.17 5232.92 1291.77V1373.13C5204.22 1366.13 5176.93 1361.06 5151.03 1357.91C5125.49 1354.41 5103.27 1352.66 5084.37 1352.66C5061.63 1352.66 5042.38 1354.41 5026.63 1357.91C5011.23 1361.41 4998.64 1366.31 4988.84 1372.61C4979.39 1378.56 4972.57 1385.73 4968.37 1394.13C4964.17 1402.18 4962.07 1410.92 4962.07 1420.37C4962.07 1429.82 4963.82 1438.39 4967.32 1446.09C4971.17 1453.79 4977.99 1461.32 4987.79 1468.66C4997.94 1475.66 5011.93 1482.84 5029.78 1490.19C5047.63 1497.18 5070.9 1504.88 5099.59 1513.28C5130.74 1522.38 5156.98 1532 5178.33 1542.15C5199.67 1551.95 5217 1562.97 5230.29 1575.22C5243.59 1587.47 5253.04 1601.29 5258.64 1616.69C5264.59 1632.08 5267.56 1649.58 5267.56 1669.18Z" fill="url(#paint1_linear_1821_94)"/>
</g>
<defs>
<filter id="filter0_if_1821_94" x="2838" y="96" width="2868" height="2868" filterUnits="userSpaceOnUse" color-interpolation-filters="sRGB">
<feFlood flood-opacity="0" result="BackgroundImageFix"/>
<feBlend mode="normal" in="SourceGraphic" in2="BackgroundImageFix" result="shape"/>
<feColorMatrix in="SourceAlpha" type="matrix" values="0 0 0 0 0 0 0 0 0 0 0 0 0 0 0 0 0 0 127 0" result="hardAlpha"/>
<feOffset dx="-80"/>
<feGaussianBlur stdDeviation="23.5"/>
<feComposite in2="hardAlpha" operator="arithmetic" k2="-1" k3="1"/>
<feColorMatrix type="matrix" values="0 0 0 0 0 0 0 0 0 0 0 0 0 0 0 0 0 0 0.25 0"/>
<feBlend mode="normal" in2="shape" result="effect1_innerShadow_1821_94"/>
<feGaussianBlur stdDeviation="62" result="effect2_foregroundBlur_1821_94"/>
</filter>
<linearGradient id="paint0_linear_1821_94" x1="4272" y1="2840" x2="4272" y2="220" gradientUnits="userSpaceOnUse">
<stop stop-color="#0386FF"/>
<stop offset="0.380208" stop-color="#D9D9D9" stop-opacity="0"/>
</linearGradient>
<linearGradient id="paint1_linear_1821_94" x1="629" y1="1381" x2="5370" y2="1381" gradientUnits="userSpaceOnUse">
<stop stop-color="white" stop-opacity="0.5"/>
<stop offset="0.228744" stop-color="white"/>
<stop offset="0.79233" stop-color="white"/>
<stop offset="1" stop-color="white" stop-opacity="0.5"/>
</linearGradient>
<clipPath id="clip0_1821_94">
<rect width="6000" height="3000" fill="white"/>
</clipPath>
</defs>
</svg>